<?xml version="1.0" encoding="utf-8"?>
<!-- Generator: Adobe Illustrator 21.1.0, SVG Export Plug-In . SVG Version: 6.00 Build 0)  -->
<svg version="1.1" id="Layer_1" xmlns="http://www.w3.org/2000/svg" xmlns:xlink="http://www.w3.org/1999/xlink" x="0px" y="0px"
	 viewBox="0 0 896 484.3" style="enable-background:new 0 0 896 484.3;" xml:space="preserve">
<style type="text/css">
	<!-- & Color -->
	.st0{fill:#F15B56;}
	.st1{enable-background:new    ;}
	<!-- Small Text Color -->
	.st2{fill:#FFFFFF;}
	<!-- C K Color -->
	.st3{fill:#F8AA9B;}
	.st4{clip-path:url(#SVGID_2_);}
	.st5{fill:none;stroke:#FFFFFF;stroke-width:1.5;stroke-linecap:round;stroke-linejoin:round;stroke-dasharray:0,3;}
	.st6{fill:none;stroke:#FFFFFF;stroke-width:1.5;stroke-linecap:round;stroke-linejoin:round;}
</style>
<title>logo</title>
<g id="Layer_2">
	<g id="Layer_1-2">
		<path class="st0" d="M356.7,93.9c-44.1,0-82.1,34.7-82.1,76.9c0,26.7,12.2,46.9,32.4,66.1c-41.3,28.6-67.5,46.4-67.5,86.8
			c0,40.8,34.2,86.8,96.1,86.8c31.9,0,62.4-17.4,93.3-58.2c16.4,16.9,32.4,34.7,38.5,41.3c5.6,6.1,33.3,16.9,72.2,17.4l2.8-5.2
			c-19.2-31-53-70.8-79.7-96.6c15.5-22,27.2-40.3,40.3-57.7c16.4-22,24.9-29.6,54.9-32.4v-15H448.6l-0.5,15
			c32.4,4.2,36.6,10.3,26.7,31.9c-7.5,17.4-15.5,31-24.9,45.5c-31.4-31-60.5-56.3-75-68.5c16-10.8,28.6-19.7,38-28.1
			c11.3-9.4,19.7-22,19.7-39.4C432.7,122,400.8,93.9,356.7,93.9 M361.9,217.7c-30.5-23.4-43.6-39.9-43.6-63.3
			c0-23.9,14.5-43.2,34.2-43.2c23.5,0,37,23,37,47.8C389.6,186.7,377.8,205.5,361.9,217.7 M354.4,371.5c-31,0-63.3-21.6-63.3-66.1
			c0-20.2,8.9-40.3,28.1-57.2c40.8,34.7,67.1,58.2,98,90.5C403.6,355.6,379.2,371.5,354.4,371.5"/>
		<g class="st1">
			<path class="st2" d="M150.1,220.1h1.9l-3,13.3h7l-0.4,1.7h-8.8L150.1,220.1z"/>
		</g>
		<g class="st1">
			<path class="st2" d="M160.4,224.2h1.7l-2.4,10.8H158L160.4,224.2z M161.9,220.2c0.6,0,1.1,0.5,1.1,1c0,0.8-0.7,1.3-1.3,1.3
				c-0.6,0-1.1-0.4-1.1-1C160.6,220.7,161.4,220.2,161.9,220.2z"/>
		</g>
		<g class="st1">
			<path class="st2" d="M163.9,232.7l1.6-7h-1.8l0.3-1.5h1.8l0.7-3h1.7l-0.7,3h2.2l-0.3,1.5h-2.2l-1.5,6.7c0,0.1,0,0.3,0,0.4
				c0,0.7,0.4,1,1.1,1c0.4,0,0.8-0.2,1-0.4l0.2,1.3c-0.4,0.3-1,0.5-1.6,0.5c-1.5,0-2.5-0.6-2.5-2
				C163.8,233.2,163.8,232.9,163.9,232.7z"/>
		</g>
		<g class="st1">
			<path class="st2" d="M175.8,223.9c2.9,0,4.7,2,4.7,4.7c0,0.5-0.1,1.2-0.2,1.5h-8.8c0,0.1,0,0.4,0,0.5c0,1.7,1.2,3.2,3.7,3.2
				c1.1,0,2.2-0.4,3.1-1.1l0.6,1.2c-1,0.8-2.4,1.3-3.8,1.3c-3.3,0-5.3-1.9-5.3-4.8C169.7,226.9,172.4,223.9,175.8,223.9z M179,228.5
				c0-1.8-1.1-3.2-3.3-3.2c-2,0-3.7,1.7-4,3.6h7.3C179,228.9,179,228.6,179,228.5z"/>
		</g>
		<g class="st1">
			<path class="st2" d="M184.2,224.2h1.7l-0.4,1.7c1.1-1.2,2.2-1.9,4-1.9l-0.4,1.7c-0.1,0-0.5-0.1-0.9-0.1c-1.3,0-2.4,0.9-3.1,1.8
				l-1.7,7.7h-1.7L184.2,224.2z"/>
			<path class="st2" d="M199.5,224.2h1.7l-2.4,10.8h-1.7l0.3-1.5c-0.9,1.1-2.1,1.8-3.6,1.8c-2.5,0-4.2-1.6-4.2-4.5
				c0-3.5,2.2-6.9,5.7-6.9c1.7,0,3.1,0.8,3.8,2L199.5,224.2z M194.4,233.8c1.3,0,2.6-0.8,3.3-1.8l1.1-4.8c-0.5-1-1.7-1.8-3.3-1.8
				c-2.5,0-4.1,2.5-4.1,5.1C191.4,232.6,192.6,233.8,194.4,233.8z"/>
		</g>
		<g class="st1">
			<path class="st2" d="M204.4,224.2h1.7l-0.4,1.7c1.1-1.2,2.2-1.9,4-1.9l-0.4,1.7c-0.1,0-0.5-0.1-0.9-0.1c-1.3,0-2.4,0.9-3.1,1.8
				l-1.7,7.7H202L204.4,224.2z"/>
		</g>
		<g class="st1">
			<path class="st2" d="M210.2,237.9c0.6,0,1.1-0.2,1.6-1.1l1.1-1.7l-2.1-10.9h1.8l1.6,8.9l5.6-8.9h1.9l-8.3,13
				c-1,1.5-2,2.2-3.4,2.2c-0.5,0-1-0.1-1.4-0.2l0.6-1.5C209.4,237.8,209.8,237.9,210.2,237.9z"/>
		</g>
		<g class="st1">
		</g>
		<g class="st1">
			<path class="st2" d="M237.7,232.7c0.5,0.7,1.1,1.5,1.8,2.4h-2.1c-0.3-0.4-0.6-0.8-1-1.3c-1.2,0.9-2.6,1.5-4.1,1.5
				c-2.5,0-4.5-1.3-4.5-3.7c0-2.9,2.1-4.2,4.4-5.1c-0.3-0.9-0.5-1.8-0.5-2.6c0-2.2,1.9-4.1,4.1-4.1c1.8,0,3.3,0.9,3.3,2.7
				c0,2.6-2.4,3.5-4.8,4.5c0.3,0.7,0.7,1.4,1.1,2.1c0.5,0.9,0.9,1.6,1.4,2.3c1.1-1.2,1.9-2.5,2.4-3.3l1.3,0.8
				C239.9,230.1,238.9,231.5,237.7,232.7z M235.7,232.7c-0.7-1-1.3-1.9-1.6-2.5c-0.5-0.9-0.9-1.7-1.3-2.5c-1.7,0.8-3,1.8-3,3.7
				c0,1.7,1.3,2.6,2.8,2.6C233.6,233.9,234.7,233.4,235.7,232.7z M233.9,225.9c2-0.8,3.7-1.5,3.7-3.2c0-1-0.7-1.5-1.6-1.5
				c-1.1,0-2.4,0.9-2.4,2.7C233.5,224.5,233.6,225.2,233.9,225.9z"/>
		</g>
		<g class="st1">
		</g>
		<g class="st1">
			<path class="st2" d="M251.1,220.1h2l2.2,12.9l7.9-12.9h2.2l-9.3,15h-2.3L251.1,220.1z"/>
		</g>
		<g class="st1">
			<path class="st2" d="M266.5,224.2h1.7l-2.4,10.8h-1.7L266.5,224.2z M268.1,220.2c0.6,0,1.1,0.5,1.1,1c0,0.8-0.7,1.3-1.3,1.3
				c-0.6,0-1.1-0.4-1.1-1C266.8,220.7,267.5,220.2,268.1,220.2z"/>
		</g>
		<g class="st1">
			<path class="st2" d="M269.8,232.3c0.6,0.9,2,1.7,3.6,1.7c1.5,0,2.5-0.9,2.5-1.9c0-0.9-1.1-1.4-2.4-1.9c-1.5-0.6-3.3-1.3-3.3-2.9
				c0-1.8,1.5-3.3,4.1-3.3c1.8,0,3.4,0.8,4.1,1.8l-1,1.1c-0.5-0.8-1.9-1.5-3.3-1.5c-1.5,0-2.3,0.7-2.3,1.7c0,0.9,1.1,1.3,2.3,1.8
				c1.6,0.6,3.4,1.3,3.4,3.1c0,1.9-1.5,3.5-4.3,3.5c-2,0-3.6-0.7-4.6-1.9L269.8,232.3z"/>
		</g>
		<g class="st1">
			<path class="st2" d="M281.8,231.3c0,0.2-0.1,0.5-0.1,0.8c0,1.3,1,1.8,2.2,1.8c1.2,0,2.5-0.9,3.3-1.7l1.7-7.9h1.7l-2.4,10.8h-1.7
				l0.4-1.6c-0.9,0.9-2.3,1.8-3.8,1.8c-1.9,0-3.2-0.9-3.2-2.7c0-0.2,0.1-0.7,0.1-0.9l1.7-7.5h1.7L281.8,231.3z"/>
		</g>
		<g class="st1">
			<path class="st2" d="M301.8,224.2h1.7l-2.4,10.8h-1.7l0.3-1.5c-0.9,1.1-2.1,1.8-3.6,1.8c-2.5,0-4.2-1.6-4.2-4.5
				c0-3.5,2.2-6.9,5.7-6.9c1.7,0,3.1,0.8,3.8,2L301.8,224.2z M296.8,233.8c1.3,0,2.6-0.8,3.3-1.8l1.1-4.8c-0.5-1-1.7-1.8-3.3-1.8
				c-2.5,0-4.1,2.5-4.1,5.1C293.8,232.6,295,233.8,296.8,233.8z"/>
		</g>
		<g class="st1">
			<path class="st2" d="M307.7,220.1h1.7l-3.3,15h-1.7L307.7,220.1z"/>
		</g>
		<g class="st1">
		</g>
		<g class="st1">
			<path class="st2" d="M326.7,231.7h-7.6l-2,3.3h-2.2l9.3-15h2.3l2.7,15h-2L326.7,231.7z M320.1,230.1h6.5l-1.4-8.3L320.1,230.1z"
				/>
		</g>
		<g class="st1">
			<path class="st2" d="M333.5,224.2h1.7l-0.4,1.7c1.1-1.2,2.2-1.9,4-1.9l-0.4,1.7c-0.1,0-0.5-0.1-0.9-0.1c-1.3,0-2.4,0.9-3.1,1.8
				l-1.7,7.7h-1.7L333.5,224.2z"/>
		</g>
		<g class="st1">
			<path class="st2" d="M340,232.7l1.6-7h-1.8l0.3-1.5h1.8l0.7-3h1.7l-0.7,3h2.2l-0.3,1.5h-2.2l-1.5,6.7c0,0.1,0,0.3,0,0.4
				c0,0.7,0.4,1,1.1,1c0.4,0,0.8-0.2,1-0.4l0.2,1.3c-0.4,0.3-1,0.5-1.6,0.5c-1.5,0-2.5-0.6-2.5-2C339.9,233.2,340,232.9,340,232.7z"
				/>
		</g>
		<g class="st1">
			<path class="st2" d="M346.6,232.3c0.6,0.9,2,1.7,3.6,1.7c1.5,0,2.5-0.9,2.5-1.9c0-0.9-1.1-1.4-2.4-1.9c-1.5-0.6-3.3-1.3-3.3-2.9
				c0-1.8,1.5-3.3,4.1-3.3c1.8,0,3.4,0.8,4.1,1.8l-1,1.1c-0.5-0.8-1.9-1.5-3.3-1.5c-1.5,0-2.3,0.7-2.3,1.7c0,0.9,1.1,1.3,2.3,1.8
				c1.6,0.6,3.4,1.3,3.4,3.1c0,1.9-1.5,3.5-4.3,3.5c-2,0-3.6-0.7-4.6-1.9L346.6,232.3z"/>
		</g>
		<g class="st1">
		</g>
		<g class="st1">
			<path class="st2" d="M379,222.3l-7.9,12.7h-0.8l-2.3-12.7l-2.8,12.7h-1.9l3.3-15h2.6l2.1,11.7l7.2-11.7h2.8l-3.3,15h-1.9
				L379,222.3z"/>
		</g>
		<g class="st1">
			<path class="st2" d="M391.7,224.2h1.7l-2.4,10.8h-1.7l0.3-1.5c-0.9,1.1-2.1,1.8-3.6,1.8c-2.5,0-4.2-1.6-4.2-4.5
				c0-3.5,2.2-6.9,5.7-6.9c1.7,0,3.1,0.8,3.8,2L391.7,224.2z M386.7,233.8c1.3,0,2.6-0.8,3.3-1.8l1.1-4.8c-0.5-1-1.7-1.8-3.3-1.8
				c-2.5,0-4.1,2.5-4.1,5.1C383.7,232.6,384.9,233.8,386.7,233.8z"/>
			<path class="st2" d="M394.9,236.5c0.7,1.1,2.1,1.6,3.7,1.6c1.6,0,3.1-0.8,3.6-3.3l0.3-1.4c-0.9,1.1-2.2,1.8-3.7,1.8
				c-2.3,0-4.1-1.4-4.1-4.5c0-3.4,2.2-6.7,5.7-6.7c1.5,0,3,0.8,3.8,2l0.4-1.7h1.7l-2.3,10.5c-0.8,3.6-3,4.7-5.3,4.7
				c-2.1,0-3.7-0.4-4.8-1.8L394.9,236.5z M404,227.2c-0.6-1.1-1.9-1.8-3.4-1.8c-2.5,0-4,2.5-4,5c0,2,1.2,3.3,3,3.3
				c1.3,0,2.5-0.8,3.3-1.7L404,227.2z"/>
		</g>
		<g class="st1">
			<path class="st2" d="M417.4,224.2h1.7l-2.4,10.8H415l0.3-1.5c-0.9,1.1-2.1,1.8-3.6,1.8c-2.5,0-4.2-1.6-4.2-4.5
				c0-3.5,2.2-6.9,5.7-6.9c1.7,0,3.1,0.8,3.8,2L417.4,224.2z M412.4,233.8c1.3,0,2.6-0.8,3.3-1.8l1.1-4.8c-0.5-1-1.7-1.8-3.3-1.8
				c-2.5,0-4.1,2.5-4.1,5.1C409.4,232.6,410.6,233.8,412.4,233.8z"/>
			<path class="st2" d="M419.4,233.8l7.7-8.1h-5.9l0.3-1.5h8.2l-0.3,1.3l-7.7,8.1h6l-0.3,1.5h-8.3L419.4,233.8z"/>
		</g>
		<g class="st1">
			<path class="st2" d="M432.2,224.2h1.7l-2.4,10.8h-1.7L432.2,224.2z M433.7,220.2c0.6,0,1.1,0.5,1.1,1c0,0.8-0.7,1.3-1.3,1.3
				c-0.6,0-1.1-0.4-1.1-1C432.4,220.7,433.2,220.2,433.7,220.2z"/>
		</g>
		<g class="st1">
			<path class="st2" d="M443.6,227.9c0-0.2,0.1-0.5,0.1-0.7c0-1.3-1-1.8-2.1-1.8c-1.4,0-2.6,0.8-3.5,1.7l-1.8,7.9h-1.7l2.4-10.8h1.7
				l-0.4,1.6c0.9-0.9,2.3-1.8,3.8-1.8c1.9,0,3.2,0.9,3.2,2.7c0,0.2-0.1,0.7-0.1,0.9l-1.7,7.5H442L443.6,227.9z"/>
		</g>
		<g class="st1">
			<path class="st2" d="M453.5,223.9c2.9,0,4.7,2,4.7,4.7c0,0.5-0.1,1.2-0.2,1.5h-8.8c0,0.1,0,0.4,0,0.5c0,1.7,1.2,3.2,3.7,3.2
				c1.1,0,2.2-0.4,3.1-1.1l0.6,1.2c-1,0.8-2.4,1.3-3.8,1.3c-3.3,0-5.3-1.9-5.3-4.8C447.4,226.9,450.1,223.9,453.5,223.9z
				 M456.6,228.5c0-1.8-1.1-3.2-3.3-3.2c-2,0-3.7,1.7-4,3.6h7.3C456.6,228.9,456.6,228.6,456.6,228.5z"/>
		</g>
		<g class="st1">
			<path class="st2" d="M172.5,272c-0.5,2-1.6,5.1-2.3,6.6c-1.1,0.2-4.9,1.1-7.7,1.1c-11,0-15.6-7.2-15.6-13.8
				c0-8.5,6.5-14.4,16.5-14.4c3.4,0,6.4,0.9,7.5,1.1c0.4,2.3,0.7,4.2,1,6.8l-1.5,0.3c-1.4-4.9-4.6-6.4-7.7-6.4
				c-6,0-9.3,5.7-9.3,11.8c0,7.6,4.1,12.6,9.7,12.6c3.4,0,6-2.2,8.1-6.4L172.5,272z"/>
		</g>
		<g class="st1">
			<path class="st2" d="M188.2,279.6c-1.1,0-2-0.4-2.5-0.9c-0.6-0.5-0.9-1-1.1-1.5c-1.6,1-3.5,2.4-4.3,2.4c-3.5,0-5.6-2.7-5.6-5.3
				c0-2.2,1-3.2,3.1-4c2.4-0.9,5.6-1.9,6.6-2.7v-1.2c0-2.6-1-4.1-2.5-4.1c-0.5,0-1,0.2-1.4,0.7c-0.5,0.6-0.9,1.6-1.2,2.9
				c-0.3,1.1-0.9,1.4-1.7,1.4c-1.1,0-2.6-1-2.6-2.1c0-0.7,0.5-1.3,1.5-2c1.6-1.1,4.5-2.5,6.9-2.9c1.7,0,2.9,0.4,4.1,1.2
				c1.8,1.4,2.2,3.1,2.2,5.5v6.8c0,1.9,0.7,2.4,1.3,2.4c0.5,0,1-0.2,1.4-0.3l0.4,1.3L188.2,279.6z M184.5,269.2
				c-0.7,0.4-1.5,0.8-2.3,1.3c-1.3,0.7-1.9,1.4-1.9,2.8c0,2.3,1.5,3.2,2.5,3.2c0.6,0,1-0.2,1.7-0.7V269.2z"/>
		</g>
		<g class="st1">
			<path class="st2" d="M202.2,261.1c1.2-0.5,1.8-0.8,2.7-0.8c5,0,8.6,4.1,8.6,8.7c0,6.1-4.7,10.6-10.8,10.6c-2.3,0-4.4-0.4-7.3-1.5
				v-22.5c0-2.4-0.2-2.7-2.5-2.9v-1.2c2.1-0.2,5.5-0.8,7.8-1.5v11.9L202.2,261.1z M200.6,274.6c0,0.6,0.1,1,0.2,1.4
				c0.2,0.7,1.2,1.9,2.5,1.9c2.2,0,4.3-2.4,4.3-7.6c0-5.3-2.7-7.3-5.3-7.3c-0.7,0-1.1,0.1-1.7,0.3V274.6z"/>
		</g>
		<g class="st1">
			<path class="st2" d="M223.6,261.1c1.2-0.5,1.8-0.8,2.7-0.8c5,0,8.6,4.1,8.6,8.7c0,6.1-4.7,10.6-10.8,10.6c-2.3,0-4.4-0.4-7.3-1.5
				v-22.5c0-2.4-0.2-2.7-2.5-2.9v-1.2c2.1-0.2,5.5-0.8,7.8-1.5v11.9L223.6,261.1z M222.1,274.6c0,0.6,0.1,1,0.2,1.4
				c0.2,0.7,1.2,1.9,2.5,1.9c2.2,0,4.3-2.4,4.3-7.6c0-5.3-2.7-7.3-5.3-7.3c-0.7,0-1.1,0.1-1.7,0.3V274.6z"/>
		</g>
		<g class="st1">
			<path class="st2" d="M250.6,279.6c-1.1,0-2-0.4-2.5-0.9c-0.6-0.5-0.9-1-1.1-1.5c-1.6,1-3.5,2.4-4.3,2.4c-3.5,0-5.6-2.7-5.6-5.3
				c0-2.2,1-3.2,3.1-4c2.4-0.9,5.6-1.9,6.6-2.7v-1.2c0-2.6-1-4.1-2.5-4.1c-0.5,0-1,0.2-1.4,0.7c-0.5,0.6-0.9,1.6-1.2,2.9
				c-0.3,1.1-0.9,1.4-1.7,1.4c-1.1,0-2.6-1-2.6-2.1c0-0.7,0.5-1.3,1.5-2c1.6-1.1,4.5-2.5,6.9-2.9c1.7,0,2.9,0.4,4.1,1.2
				c1.8,1.4,2.2,3.1,2.2,5.5v6.8c0,1.9,0.7,2.4,1.3,2.4c0.5,0,1-0.2,1.4-0.3l0.4,1.3L250.6,279.6z M246.8,269.2
				c-0.7,0.4-1.5,0.8-2.3,1.3c-1.3,0.7-1.9,1.4-1.9,2.8c0,2.3,1.5,3.2,2.5,3.2c0.6,0,1-0.2,1.7-0.7V269.2z"/>
		</g>
		<g class="st1">
			<path class="st2" d="M275.8,261.2c-0.2,0.7-1,2.1-1.8,2.5l-2.4-0.2c0.7,0.8,1.1,1.7,1.1,3.1c0,4.3-3.9,6.5-7.9,6.5
				c-0.7,0-1.4-0.1-2-0.2c-0.3,0.3-0.6,0.7-0.6,1.2c0,0.7,0.7,1.6,2.7,1.6c1.3,0,2.5,0,3.8,0c2.6,0,6.4,0.7,6.4,5.1
				c0,4.7-5.6,8.5-11.1,8.5c-5.3,0-7.7-2.7-7.7-5.1c0-0.9,0.5-1.6,1.3-2.3c1-0.8,2.1-1.4,3.1-2c-1.7-0.6-2.5-1.4-3.1-2.3
				c-0.5-0.7-0.7-1.7-0.6-2.2c2.2-0.9,3.4-2,4.2-2.7c-2.5-0.8-4.1-2.9-4.1-5.5c0-4.6,4.3-6.8,8-6.8c1.7,0,2.9,0.3,4.4,1.1
				c2.2-0.1,4.4-0.3,6-0.5L275.8,261.2z M261.7,280.8c-0.6,0.6-1,1.2-1,2.1c0,2,2.1,4,5.3,4c3.1,0,5-1.7,5-3.9c0-1.5-1-2.4-2.3-2.7
				c-1.1-0.3-2-0.4-3.6-0.4C263.2,280,262.3,280.2,261.7,280.8z M262.5,266.4c0,2.9,1,5.2,2.9,5.2c1.6,0,2.5-1.7,2.5-4.7
				c0-2.7-0.9-5.1-2.9-5.1C263.7,261.8,262.5,263.4,262.5,266.4z"/>
		</g>
		<g class="st1">
			<path class="st2" d="M292.1,275c-2.5,3.8-5.8,4.6-7.5,4.6c-5.5,0-8.6-4.1-8.6-8.9c0-3.2,1.3-5.8,3.1-7.5c1.8-1.8,4.1-2.9,6.4-2.9
				c3.8,0,6.8,3.3,6.7,6.7c0,0.8-0.2,1.4-1.2,1.5c-0.7,0.1-5.8,0.5-9.9,0.7c0.2,4.4,2.7,6.7,5.6,6.7c1.6,0,3.1-0.5,4.6-1.8
				L292.1,275z M281.3,267.1c1.7,0,3.2-0.1,4.9-0.1c0.6,0,0.8-0.1,0.9-0.8c0-2.1-0.9-4.3-2.5-4.3C283,261.9,281.6,263.8,281.3,267.1
				z"/>
			<path class="st2" d="M305.6,266.1c-1.1-2.5-2.4-4.2-4.4-4.2c-1.1,0-2.1,0.9-2.1,2.2c0,1.3,1,2.2,3.1,3.2c3.4,1.5,5.6,2.9,5.6,6.1
				c0,4.1-3.9,6.1-7.4,6.1c-2.2,0-4.4-0.8-5.2-1.4c-0.2-0.7-0.6-3.6-0.7-5.6l1.2-0.1c0.9,2.6,2.8,5.5,5.3,5.5c1.4,0,2.3-1,2.3-2.2
				c0-1.2-0.6-2.2-3.1-3.4c-1.9-1-5.3-2.6-5.3-6.1c0-3.2,2.6-5.9,7-5.9c1.9,0,3,0.3,4,0.7c0.4,1,0.9,3.9,1,4.7L305.6,266.1z"/>
		</g>
		<g class="st1">
		</g>
		<g class="st1">
			<path class="st2" d="M348.7,262.8c-2.6,0.3-3.4,0.8-4.9,2.8c-1.2,1.5-2.2,3-3.5,4.8c2.7,2.6,5.2,5.8,7.2,8.7l-0.2,0.5
				c-4.1,0-6.6-1-7.1-1.5c-0.5-0.5-1.7-1.9-3.3-3.4c-2.6,3.4-5.2,4.9-8,4.9c-5.6,0-8.7-4.1-8.7-7.7c0-3.5,2.1-5,5.8-7.5
				c-1.7-1.6-2.8-3.4-2.8-5.9c0-3.7,3.4-6.9,7.5-6.9c4.1,0,7,2.6,7,6c0,1.5-0.7,2.5-1.8,3.4c-0.8,0.7-2,1.6-3.3,2.4
				c1.2,1,3.6,3.1,6.5,5.8c0.7-1.1,1.4-2.2,2-3.6c0.8-1.9,0.5-2.4-2.3-2.9v-1.4h9.8V262.8z M335.8,273.5c-3.1-3.1-5.2-4.9-8.7-8
				c-1.1,1.2-1.7,2.9-1.7,4.6c0,4,2.7,5.8,5.5,5.8C332.7,275.9,334.7,274.8,335.8,273.5z M327.6,256.9c0,2,1.1,3.4,3.9,5.6
				c1.1-0.9,2.1-2.6,2.1-5.1c0-2.2-1.1-4.2-3.2-4.2C328.8,253.2,327.6,254.9,327.6,256.9z"/>
		</g>
		<g class="st1">
			<path class="st2" d="M378.5,279.1c-1.8-2.4-5.2-7.3-8.2-11.6c-0.9-1.3-1.4-1.5-2-1.5v7.5c0,3.5,0.4,3.8,3.6,4.1v1.5h-12.4v-1.5
				c3-0.3,3.4-0.6,3.4-4.1v-15.8c0-3.5-0.4-3.8-3.5-4.1v-1.5h12.2v1.5c-2.9,0.3-3.3,0.6-3.3,4.1v7c0.9-0.2,1.9-0.9,3.1-2.2
				c2.8-2.8,4.4-4.8,5.8-6.7c1-1.3,0.9-1.9-1-2.2l-0.7-0.1v-1.5h10.8v1.5c-2.6,0.2-4.3,0.8-6.5,2.9c-2.4,2.2-4.2,4.2-6.1,6.2
				c2.7,3.9,5.7,8.1,8.7,11.9c1.7,2.1,2.8,2.8,4.5,3.1v1.5H378.5z"/>
		</g>
		<g class="st1">
			<path class="st2" d="M388.7,279.1v-1.3c2.4-0.3,2.7-0.5,2.7-3.4v-8.2c0-2.7-0.3-2.9-2.3-3.2v-1.2c2.5-0.3,5.2-0.8,7.5-1.5v14.1
				c0,2.9,0.2,3.1,2.7,3.4v1.3H388.7z M390.7,254.8c0-1.7,1.4-2.9,2.9-2.9c1.7,0,2.9,1.2,2.9,2.9c0,1.6-1.3,2.9-3,2.9
				C392.1,257.7,390.7,256.3,390.7,254.8z"/>
		</g>
		<g class="st1">
			<path class="st2" d="M413.1,279.1v-1.3c1.7-0.3,1.9-0.4,1.9-3.4v-7c0-3-1.4-3.9-2.9-3.9c-1,0-2,0.5-3.1,1.3v10
				c0,2.6,0.2,2.7,1.9,3v1.3h-10v-1.3c2.6-0.4,2.8-0.4,2.8-3.2V266c0-2.5-0.2-2.7-2.2-3v-1.2c2.4-0.3,5.1-0.9,7.5-1.6v3.1
				c0.8-0.6,1.7-1.2,2.6-1.8c1.2-0.8,2-1.2,3.2-1.2c3.4,0,5.4,2.5,5.4,6.6v7.8c0,2.6,0.2,2.7,2.4,3v1.3H413.1z"/>
		</g>
		<g class="st1">
			<path class="st2" d="M443.8,261.2c-0.2,0.7-1,2.1-1.8,2.5l-2.4-0.2c0.7,0.8,1.1,1.7,1.1,3.1c0,4.3-3.9,6.5-7.9,6.5
				c-0.7,0-1.4-0.1-2-0.2c-0.3,0.3-0.6,0.7-0.6,1.2c0,0.7,0.7,1.6,2.7,1.6c1.3,0,2.5,0,3.8,0c2.6,0,6.4,0.7,6.4,5.1
				c0,4.7-5.6,8.5-11.1,8.5c-5.3,0-7.7-2.7-7.7-5.1c0-0.9,0.5-1.6,1.3-2.3c1-0.8,2.1-1.4,3.1-2c-1.7-0.6-2.5-1.4-3.1-2.3
				c-0.5-0.7-0.7-1.7-0.6-2.2c2.2-0.9,3.4-2,4.2-2.7c-2.5-0.8-4.1-2.9-4.1-5.5c0-4.6,4.3-6.8,8-6.8c1.7,0,2.9,0.3,4.4,1.1
				c2.2-0.1,4.4-0.3,6-0.5L443.8,261.2z M429.7,280.8c-0.6,0.6-1,1.2-1,2.1c0,2,2.1,4,5.3,4c3.1,0,5-1.7,5-3.9c0-1.5-1-2.4-2.3-2.7
				c-1.1-0.3-2-0.4-3.6-0.4C431.2,280,430.3,280.2,429.7,280.8z M430.5,266.4c0,2.9,1,5.2,2.9,5.2c1.6,0,2.5-1.7,2.5-4.7
				c0-2.7-0.9-5.1-2.9-5.1C431.7,261.8,430.5,263.4,430.5,266.4z"/>
		</g>
		<g class="st1">
			<path class="st2" d="M455.9,266.1c-1.1-2.5-2.4-4.2-4.4-4.2c-1.1,0-2.1,0.9-2.1,2.2c0,1.3,1,2.2,3.1,3.2c3.4,1.5,5.6,2.9,5.6,6.1
				c0,4.1-3.9,6.1-7.4,6.1c-2.2,0-4.4-0.8-5.2-1.4c-0.2-0.7-0.6-3.6-0.7-5.6l1.2-0.1c0.9,2.6,2.8,5.5,5.3,5.5c1.4,0,2.3-1,2.3-2.2
				c0-1.2-0.6-2.2-3.1-3.4c-1.9-1-5.3-2.6-5.3-6.1c0-3.2,2.6-5.9,7-5.9c1.9,0,3,0.3,4,0.7c0.4,1,0.9,3.9,1,4.7L455.9,266.1z"/>
		</g>
		<path class="st3" d="M435.9,353.3c-10,34.2-27.8,88.3-39.9,112.5c-19.2,4.3-82.6,18.5-132.5,18.5C79.1,484.3,0,361.1,0,248.6
			C0,100.4,113.2,0,279.9,0c57.7,0,109,15,128.2,19.2c5.7,39.2,10.7,71.2,15.7,113.2l-24.9,5C377.5,56.3,326.9,29.2,264.2,29.2
			c-109,0-168.1,98.3-168.1,205.1c0,131,72.6,219.4,173.8,219.4c64.8,0,106.1-38.5,142.4-109.7L435.9,353.3z"/>
		<path class="st3" d="M764.9,473.6c-39.9-49.1-98.3-127.5-153.8-202.3c-15.7-20.6-24.9-24.2-36.3-22.8v131
			c0,61.3,7.1,66.2,62.7,71.2v22.8H435.1v-22.7c52-5,59.1-10,59.1-71.2V105.4c0-62.7-6.4-66.9-61.3-71.2V10.7h200.1v23.5
			c-52,4.3-58.4,9.3-58.4,71.2v121.8c15.7-4.3,32-15,52.7-35.6c44.9-44.2,80.5-84.8,106.8-118.9c18.5-23.5,17.8-32.8-15.7-37
			l-13.5-1.4V10.7h179.5v23.5c-47,4.3-71.9,12.1-114,50.6c-36.3,34.2-74.1,74.1-111.1,112.5c47.7,68.4,110.4,146,155.3,200.8
			c32.8,38.5,50.6,48.4,81.2,52.7v22.8L764.9,473.6z"/>
		<g>
			<defs>
				<rect id="SVGID_1_" x="129.6" y="242.4" width="345.2" height="3"/>
			</defs>
			<clipPath id="SVGID_2_">
				<use xlink:href="#SVGID_1_"  style="overflow:visible;"/>
			</clipPath>
			<g class="st4">
				<line class="st5" x1="136.1" y1="243.9" x2="471" y2="243.9"/>
				<path class="st6" d="M473.6,243.9L473.6,243.9 M130.9,243.9L130.9,243.9"/>
			</g>
		</g>
	</g>
</g>
</svg>
